<?xml version="1.0" encoding="utf-8"?>
<!-- Generator: Adobe Illustrator 24.3.0, SVG Export Plug-In . SVG Version: 6.00 Build 0)  -->
<svg version="1.1" id="Layer_1" xmlns="http://www.w3.org/2000/svg" xmlns:xlink="http://www.w3.org/1999/xlink" x="0px" y="0px"
	 viewBox="0 0 41.5 42.7" style="enable-background:new 0 0 41.5 42.7;" xml:space="preserve">
<style type="text/css">
	.st0{fill:#EC6C84;}
</style>
<path id="envelope" class="st0" d="M31.5,18.3v9.6c0,1.1-0.9,1.9-1.9,1.9H11.9c-1.1,0-1.9-0.9-1.9-1.9v-9.6c0.4,0.4,0.8,0.7,1.2,1
	c2,1.4,4,2.7,6,4.2c1,0.9,2.2,1.5,3.6,1.7h0c1.3-0.2,2.6-0.8,3.6-1.7c2-1.4,4-2.8,6-4.2C30.8,19.1,31.2,18.7,31.5,18.3L31.5,18.3z
	 M31.5,14.8c-0.1,1.4-0.9,2.6-2.1,3.3c-1.9,1.3-3.8,2.6-5.6,3.9c-0.8,0.5-2.1,1.6-3.1,1.6h0c-1,0-2.3-1.1-3.1-1.6
	c-1.9-1.3-3.8-2.6-5.6-3.9c-0.9-0.6-2.1-1.9-2.1-3c-0.1-1.1,0.6-2,1.7-2.2c0.1,0,0.2,0,0.2,0h17.7C30.7,12.9,31.5,13.7,31.5,14.8
	L31.5,14.8z"/>
</svg>
