<?xml version="1.0" encoding="utf-8"?>
<!-- Generator: Adobe Illustrator 25.2.2, SVG Export Plug-In . SVG Version: 6.00 Build 0)  -->
<svg version="1.1" id="Layer_1" xmlns="http://www.w3.org/2000/svg" xmlns:xlink="http://www.w3.org/1999/xlink" x="0px" y="0px"
	 viewBox="0 0 23.89 25.38" style="enable-background:new 0 0 23.89 25.38;" xml:space="preserve">
<style type="text/css">
	.st0{fill:#010202;}
</style>
<path id="lock" class="st0" d="M4.88,12.88h14c0.55,0,1,0.45,1,1v7c0,0.55-0.45,1-1,1h-14c-0.55,0-1-0.45-1-1v-7
	C3.88,13.33,4.33,12.88,4.88,12.88z M17.88,10.88v-3c0-3.31-2.69-6-6-6s-6,2.69-6,6v3h-1c-1.66,0-3,1.34-3,3v7c0,1.66,1.34,3,3,3h14
	c1.66,0,3-1.34,3-3v-7c0-1.66-1.34-3-3-3H17.88z M7.88,10.88v-3c0-2.21,1.79-4,4-4s4,1.79,4,4v3H7.88z"/>
</svg>
