<?xml version="1.0" encoding="utf-8"?>
<!-- Generator: Adobe Illustrator 24.3.0, SVG Export Plug-In . SVG Version: 6.00 Build 0)  -->
<svg version="1.1" id="Layer_1" xmlns="http://www.w3.org/2000/svg" xmlns:xlink="http://www.w3.org/1999/xlink" x="0px" y="0px"
	 viewBox="0 0 24 28" style="enable-background:new 0 0 24 28;" xml:space="preserve">
<style type="text/css">
	.st0{fill:#231F20;}
</style>
<g>
	<path class="st0" d="M4,19.5C5.5,20.5,7.2,21,9,21c6,0,9.3-5,9.3-9.3c0-0.1,0-0.3,0-0.4c0.6-0.5,1.2-1,1.6-1.7
		c-0.6,0.3-1.2,0.4-1.9,0.5c0.7-0.4,1.2-1.1,1.5-1.8c-0.6,0.4-1.3,0.7-2.1,0.8c-0.6-0.6-1.5-1-2.4-1c-1.8,0-3.3,1.5-3.3,3.3
		c0,0.2,0,0.5,0.1,0.8c-2.7-0.1-5.2-1.4-6.8-3.4c-0.3,0.5-0.5,1.1-0.5,1.7c0,1.1,0.5,2.1,1.4,2.7c-0.5,0-1.1-0.2-1.6-0.4v0
		c0,1.6,1.2,2.9,2.7,3.2C6.9,15.9,6.7,16,6.4,16c-0.2,0-0.4,0-0.6-0.1c0.4,1.3,1.6,2.2,3.1,2.3c-1.1,0.9-2.5,1.4-4.1,1.4
		C4.5,19.6,4.2,19.6,4,19.5z"/>
	<polygon class="st0" points="20,9.5 20,9.5 20,9.5 	"/>
</g>
</svg>
